<svg width="79" height="79" viewBox="0 0 79 79" fill="none" xmlns="http://www.w3.org/2000/svg">
<path fill-rule="evenodd" clip-rule="evenodd" d="M37.0312 12.3438V4.9375H41.9688V12.3438H37.0312ZM56.4404 53.8777C58.1959 56.0098 59.25 58.741 59.25 61.7185C59.25 68.5357 53.7236 74.0622 46.9063 74.0622L46.8158 74.0619H28.4863V74.0617L28.3906 74.0619C18.1647 74.0619 9.875 65.7722 9.875 55.5463C9.875 49.4742 12.7979 44.0847 17.3135 40.7082C17.2921 40.3082 17.2812 39.9054 17.2812 39.5C17.2812 27.2289 27.2289 17.2812 39.5 17.2812C51.7711 17.2812 61.7188 27.2289 61.7188 39.5C61.7188 44.9832 59.7325 50.0025 56.4404 53.8777ZM52.6047 50.7659C50.9 49.8771 48.9618 49.3747 46.9063 49.3747C44.819 49.3747 42.8527 49.8928 41.129 50.8074C41.6786 52.2829 41.9791 53.8798 41.9791 55.5469C41.9791 55.7668 41.9738 55.9854 41.9635 56.2028C43.2744 55.0272 45.0069 54.3122 46.9063 54.3122C50.9966 54.3122 54.3125 57.6281 54.3125 61.7185C54.3125 65.8088 50.9966 69.1247 46.9062 69.1247V69.1244H46.8362L46.7413 69.1229H28.5963C28.5279 69.1239 28.4593 69.1244 28.3906 69.1244C20.8916 69.1244 14.8125 63.0453 14.8125 55.5463C14.8125 48.0473 20.8916 41.9681 28.3906 41.9681C34.2244 41.9681 39.1989 45.6472 41.1205 50.8117C42.5576 50.0478 44.1636 49.5595 45.8679 49.4176C43.3384 42.2036 36.4686 37.0306 28.3906 37.0306C26.2485 37.0306 24.1914 37.3944 22.2776 38.0635C23.0077 29.1914 30.4395 22.2188 39.5 22.2188C49.0442 22.2188 56.7812 29.9558 56.7812 39.5C56.7812 43.8041 55.2078 47.7406 52.6047 50.7659ZM74.0625 37.0312H66.6562V41.9688H74.0625V37.0312ZM61.7836 23.7839L68.1976 20.0807L70.6663 24.3568L64.2523 28.0599L61.7836 23.7839ZM54.6434 8.33384L50.9403 14.7478L55.2163 17.2166L58.9194 10.8026L54.6434 8.33384ZM23.7839 17.2166L20.0807 10.8026L24.3568 8.33384L28.0599 14.7478L23.7839 17.2166ZM8.33369 24.3568L14.7477 28.0599L17.2164 23.7839L10.8024 20.0807L8.33369 24.3568ZM4.9375 37.0312H12.3438V41.9688H4.9375V37.0312ZM61.7837 55.2161L68.1977 58.9193L70.6664 54.6432L64.2524 50.9401L61.7837 55.2161Z" fill="white"/>
</svg>
