<svg width="70" height="70" viewBox="0 0 70 70" fill="none" xmlns="http://www.w3.org/2000/svg">
<path fill-rule="evenodd" clip-rule="evenodd" d="M56.5796 34.9422C58.9866 32.6214 60.6212 29.5566 61.1025 26.1585C60.9397 26.231 60.7756 26.3004 60.6102 26.3667C60.4748 26.4209 60.3386 26.4731 60.2015 26.5231C58.4197 27.1736 56.5052 27.4656 54.5737 27.3622L54.5335 27.36C51.1038 27.1668 47.8675 25.74 45.4479 23.354L45.4308 23.3371C43.2387 21.168 41.8618 18.3497 41.5041 15.34C41.4652 15.012 41.4383 14.6818 41.4238 14.3499C41.3445 12.5368 41.6373 10.7431 42.2677 9.06872C37.2365 10.0806 33.1264 13.4151 31.0986 17.8199C39.4516 19.2589 46.2867 25.4188 49.0243 33.5975C49.449 33.5604 49.8786 33.5415 50.3125 33.5415C52.5454 33.5415 54.6666 34.0422 56.5796 34.9422ZM26.4948 17.5161C29.2542 9.86113 36.7168 4.375 45.4899 4.375C47.6257 4.375 49.6839 4.70017 51.6155 5.30265C49.8378 6.0359 48.337 7.28183 47.3082 8.8502L47.2736 8.8464C46.2613 10.4289 45.7547 12.2827 45.8371 14.1674C45.8464 14.3807 45.8632 14.5929 45.8874 14.8039C46.1233 16.8652 47.0593 18.7973 48.5553 20.2851L48.5723 20.302C50.2316 21.9439 52.4564 22.9234 54.8132 23.0495L54.8535 23.0516C56.2731 23.1216 57.6785 22.879 58.9707 22.355C59.8112 22.0142 60.6038 21.5543 61.3214 20.9842L61.3243 20.9877C62.6497 19.93 63.6761 18.5298 64.2611 16.9258C65.1417 19.1385 65.6248 21.5453 65.6248 24.0625C65.6248 29.2143 63.6011 33.9039 60.2885 37.4127C63.5557 40.3547 65.625 44.7157 65.625 49.5832C65.625 58.4427 58.7693 65.6248 50.3125 65.6248L50.3125 65.625H27.4056V65.6249L27.3437 65.625C14.6585 65.625 4.375 54.8519 4.375 41.5625C4.375 28.5709 14.2028 17.984 26.4948 17.5161ZM27.4606 61.2496L27.3437 61.25C17.2643 61.25 8.75 52.6296 8.75 41.5625C8.75 30.4954 17.2643 21.875 27.3437 21.875C35.1885 21.875 42.0852 27.0967 44.7577 34.6296L44.7526 34.6317C45.2428 36.0114 45.5909 37.4649 45.778 38.972C47.1738 38.2916 48.7146 37.9165 50.3125 37.9165C56.1635 37.9165 61.25 42.9458 61.25 49.5832C61.25 56.2205 56.1635 61.2498 50.3125 61.2498L50.3125 61.25H27.4606V61.2496Z" fill="white"/>
</svg>
