<svg width="37" height="39" viewBox="0 0 37 39" fill="none" xmlns="http://www.w3.org/2000/svg">
<path d="M13.6671 31.6667C5.33381 34.1667 5.33381 27.5 2.00047 26.6667M25.3338 36.6667V30.2167C25.3963 29.4219 25.289 28.623 25.0188 27.873C24.7487 27.123 24.322 26.439 23.7671 25.8667C29.0005 25.2833 34.5005 23.3 34.5005 14.2C34.5 11.873 33.605 9.63533 32.0005 7.95C32.7602 5.91418 32.7065 3.66391 31.8505 1.66666C31.8505 1.66666 29.8838 1.08333 25.3338 4.13333C21.5138 3.09803 17.4871 3.09803 13.6671 4.13333C9.11714 1.08333 7.15047 1.66666 7.15047 1.66666C6.29443 3.66391 6.24071 5.91418 7.00047 7.95C5.38402 9.64783 4.48801 11.9058 4.50047 14.25C4.50047 23.2833 10.0005 25.2667 15.2338 25.9167C14.6855 26.4833 14.2626 27.159 13.9927 27.8999C13.7227 28.6407 13.6118 29.4301 13.6671 30.2167V36.6667" stroke="white" stroke-width="4" stroke-linecap="round" stroke-linejoin="round"/>
</svg>
