<svg width="70" height="70" viewBox="0 0 70 70" fill="none" xmlns="http://www.w3.org/2000/svg">
<path fill-rule="evenodd" clip-rule="evenodd" d="M61.2499 37.424C61.2499 42.3958 58.0161 46.5673 53.5938 47.9728V52.4998C60.4738 50.9861 65.6249 44.8113 65.6249 37.424C65.6249 28.9018 58.7692 21.9931 50.3124 21.9931C49.8785 21.9931 49.4489 22.0113 49.0242 22.047C45.8861 13.029 37.3643 6.5625 27.3437 6.5625C14.6585 6.5625 4.375 16.9255 4.375 29.7089C4.375 39.3701 10.2487 47.6489 18.5938 51.1165V46.2748C12.7447 43.1199 8.75 36.8988 8.75 29.7089C8.75 19.3099 17.1064 10.9375 27.3437 10.9375C35.27 10.9375 42.0687 15.9564 44.7344 23.049L44.7525 23.0418C45.2581 24.4107 45.6125 25.8549 45.7951 27.3534C47.1744 26.7202 48.7047 26.3681 50.3124 26.3681C56.3213 26.3681 61.2499 31.2862 61.2499 37.424ZM50.3125 39.375H28.4375V43.75H50.3125V39.375ZM45.9375 48.125H24.0625V52.5H45.9375V48.125ZM28.4375 56.875H50.3125V61.25H28.4375V56.875Z" fill="white"/>
</svg>
