<svg width="70" height="70" viewBox="0 0 70 70" fill="none" xmlns="http://www.w3.org/2000/svg">
<path fill-rule="evenodd" clip-rule="evenodd" d="M32.8125 10.9375V4.375H37.1875V10.9375H32.8125ZM45.137 13.0677L48.4182 7.38441L52.2071 9.57191L48.9258 15.2552L45.137 13.0677ZM35 50.3125C43.4569 50.3125 50.3125 43.4569 50.3125 35C50.3125 26.5431 43.4569 19.6875 35 19.6875C26.5431 19.6875 19.6875 26.5431 19.6875 35C19.6875 43.4569 26.5431 50.3125 35 50.3125ZM35 54.6875C45.8731 54.6875 54.6875 45.8731 54.6875 35C54.6875 24.1269 45.8731 15.3125 35 15.3125C24.1269 15.3125 15.3125 24.1269 15.3125 35C15.3125 45.8731 24.1269 54.6875 35 54.6875ZM59.0625 32.8125H65.625V37.1875H59.0625V32.8125ZM60.4282 17.7931L54.7449 21.0743L56.9324 24.8632L62.6157 21.5819L60.4282 17.7931ZM17.7931 9.57191L21.0743 15.2552L24.8632 13.0677L21.5819 7.38441L17.7931 9.57191ZM13.0676 24.8632L7.38428 21.5819L9.57178 17.7931L15.2551 21.0743L13.0676 24.8632ZM32.8125 59.0625V65.625H37.1875V59.0625H32.8125ZM10.9375 32.8125H4.375V37.1875H10.9375V32.8125ZM7.38416 48.4181L13.0675 45.1368L15.255 48.9257L9.57166 52.2069L7.38416 48.4181ZM21.0745 54.7452L17.7932 60.4285L21.5821 62.616L24.8633 56.9327L21.0745 54.7452ZM48.4181 62.616L45.1368 56.9327L48.9257 54.7452L52.2069 60.4285L48.4181 62.616ZM54.745 48.9257L60.4283 52.2069L62.6158 48.4181L56.9325 45.1368L54.745 48.9257Z" fill="white"/>
</svg>
