<svg width="68" height="68" viewBox="0 0 68 68" fill="none" xmlns="http://www.w3.org/2000/svg">
<path fill-rule="evenodd" clip-rule="evenodd" d="M51.2321 28.288C54.4168 28.1844 57.4412 26.8903 59.6991 24.6701C60.863 23.5103 61.7975 22.1257 62.43 20.5883C63.2855 23.055 63.7499 25.7018 63.7499 28.456C63.7499 39.2944 56.5585 48.469 46.6443 51.5537C46.7213 52.07 46.7612 52.5984 46.7612 53.1362C46.7612 59.0073 42.0018 63.7667 36.1307 63.7667C35.9321 63.7667 35.7348 63.7613 35.5388 63.7505H20.1981V63.7473L20.1847 63.7474C11.378 63.7474 4.23885 56.6758 4.23885 47.9526C4.23885 40.9211 8.8774 34.9628 15.2888 32.9162C15.017 31.4705 14.8749 29.9797 14.8749 28.456C14.8749 15.0874 25.8159 4.25 39.3124 4.25C41.219 4.25 43.0747 4.46629 44.8557 4.87544C43.3651 5.65133 42.0509 6.71315 40.988 7.98697C38.9866 10.455 38.0052 13.5859 38.2461 16.7464C38.4909 19.9575 39.9784 22.9508 42.3982 25.1014C44.818 27.2521 47.9829 28.3937 51.2321 28.288ZM19.4751 32.1731C19.7103 32.1629 19.9469 32.1577 20.1847 32.1577C27.0749 32.1577 32.9444 36.4865 35.1727 42.5482C35.4883 42.52 35.8078 42.5056 36.1307 42.5056C39.9555 42.5056 43.3084 44.5255 45.1811 47.5568C52.942 45.2311 58.7011 38.4131 59.4233 30.2044C56.9998 31.6256 54.2348 32.4361 51.3731 32.5292C47.0198 32.6708 42.7794 31.1412 39.5373 28.2598C36.2952 25.3783 34.3022 21.3678 33.9742 17.0656C33.758 14.2291 34.2767 11.4104 35.4486 8.86451C26.1232 10.649 19.1249 18.7708 19.1249 28.456C19.1249 29.7255 19.2451 30.9681 19.4751 32.1731ZM20.2404 59.4972L20.1847 59.4974C13.687 59.4974 8.48885 54.2905 8.48885 47.9526C8.48885 41.6146 13.687 36.4077 20.1847 36.4077C25.229 36.4077 29.4902 39.5458 31.144 43.9151L31.1549 43.9093C31.6285 45.1682 31.8873 46.5307 31.8873 47.9531C31.8873 48.0953 31.8847 48.237 31.8796 48.378C33.0081 47.369 34.4978 46.7556 36.1307 46.7556C39.6546 46.7556 42.5112 49.6123 42.5112 53.1362C42.5112 56.66 39.6546 59.5167 36.1307 59.5167H36.1249V59.5005H35.6725L35.6283 59.4972H27.6125L27.615 59.5005H27.5994L27.5969 59.4972H20.2404Z" fill="white"/>
</svg>
