<svg width="70" height="70" viewBox="0 0 70 70" fill="none" xmlns="http://www.w3.org/2000/svg">
<path fill-rule="evenodd" clip-rule="evenodd" d="M60.3555 41.7938C61.3624 38.0363 61.5007 34.2506 60.8935 30.65C60.0807 33.2574 58.63 35.5098 56.7592 37.2779L56.7572 37.2967C55.3572 38.6755 53.7067 39.7779 51.8921 40.5434C49.8535 41.4034 47.6547 41.8182 45.4428 41.7601C43.2309 41.702 41.0569 41.1723 39.0662 40.2065C37.0755 39.2406 35.314 37.8609 33.8994 36.1595C32.4848 34.4581 31.4497 32.4743 30.8635 30.3408C30.2772 28.2072 30.1532 25.9731 30.4998 23.7878C30.8463 21.6024 31.6555 19.5163 32.8731 17.6688C34.0089 15.9456 35.4756 14.4671 37.1865 13.3183C39.3681 11.7938 41.9329 10.8328 44.6374 10.5804C43.7187 10.2191 42.7702 9.90583 41.794 9.64427C27.7905 5.89204 13.3966 14.2023 9.64442 28.2058C5.89219 42.2093 14.2025 56.6031 28.206 60.3554C42.2095 64.1076 56.6033 55.7973 60.3555 41.7938ZM54.7884 44.3325C50.3683 53.7327 39.7245 58.9124 29.3383 56.1294C17.6687 53.0026 10.7435 41.0077 13.8703 29.3382C16.0297 21.2792 22.4184 15.483 30.0086 13.6975C29.6491 14.1522 29.3088 14.6229 28.9886 15.1086C27.4065 17.5091 26.3552 20.2196 25.9049 23.059C25.4546 25.8985 25.6157 28.8013 26.3774 31.5735C27.1392 34.3457 28.484 36.9232 30.3221 39.1339C32.1601 41.3445 34.4489 43.1372 37.0354 44.3921C39.622 45.6471 42.4467 46.3353 45.3206 46.4108C48.1946 46.4863 51.0515 45.9473 53.7004 44.8299C54.0684 44.6747 54.4312 44.5088 54.7884 44.3325ZM56.5696 18.8434L55.4224 15.3125L54.2751 18.8434L50.5626 18.8434L53.5661 21.0255L52.4189 24.5564L55.4224 22.3742L58.4259 24.5564L57.2787 21.0255L60.2822 18.8434L56.5696 18.8434ZM42.2974 15.3125L43.4446 18.8434L47.1572 18.8434L44.1537 21.0255L45.3009 24.5564L42.2974 22.3742L39.2939 24.5564L40.4411 21.0255L37.4376 18.8434L41.1501 18.8434L42.2974 15.3125ZM50.0071 27.5934L48.8599 24.0625L47.7126 27.5933L44.0001 27.5934L47.0036 29.7755L45.8564 33.3064L48.8599 31.1242L51.8634 33.3064L50.7162 29.7755L53.7197 27.5934L50.0071 27.5934Z" fill="white"/>
</svg>
